<mxfile host="app.diagrams.net" modified="2025-03-19T07:07:04.974Z" agent="Mozilla/5.0 (Macintosh; Intel Mac OS X 10_15_7) AppleWebKit/537.36 (KHTML, like Gecko) Chrome/134.0.0.0 Safari/537.36" etag="GX6thUQJ87nDeSxERTzc" version="24.2.2" type="device">
  <diagram name="Page-1" id="sav9OWvjPNM8bZPecAnb">
    <mxGraphModel dx="1434" dy="785" grid="1" gridSize="10" guides="1" tooltips="1" connect="1" arrows="1" fold="1" page="1" pageScale="1" pageWidth="1100" pageHeight="850" math="0" shadow="0">
      <root>
        <mxCell id="0" />
        <mxCell id="1" parent="0" />
        <mxCell id="fUbf4jdWngs2MHz5qSle-2" value="VPC" style="rounded=0;whiteSpace=wrap;html=1;align=left;verticalAlign=top;" vertex="1" parent="1">
          <mxGeometry x="220" y="200" width="690" height="460" as="geometry" />
        </mxCell>
        <mxCell id="fUbf4jdWngs2MHz5qSle-23" style="edgeStyle=orthogonalEdgeStyle;rounded=0;orthogonalLoop=1;jettySize=auto;html=1;exitX=0.5;exitY=1;exitDx=0;exitDy=0;entryX=0.5;entryY=0;entryDx=0;entryDy=0;" edge="1" parent="1" source="fUbf4jdWngs2MHz5qSle-1" target="fUbf4jdWngs2MHz5qSle-6">
          <mxGeometry relative="1" as="geometry" />
        </mxCell>
        <mxCell id="fUbf4jdWngs2MHz5qSle-24" value="pull image" style="edgeLabel;html=1;align=center;verticalAlign=middle;resizable=0;points=[];" vertex="1" connectable="0" parent="fUbf4jdWngs2MHz5qSle-23">
          <mxGeometry x="-0.2267" relative="1" as="geometry">
            <mxPoint as="offset" />
          </mxGeometry>
        </mxCell>
        <mxCell id="fUbf4jdWngs2MHz5qSle-1" value="Public ECR&lt;div&gt;us-east-1&lt;/div&gt;" style="rounded=0;whiteSpace=wrap;html=1;" vertex="1" parent="1">
          <mxGeometry x="505" y="60" width="120" height="60" as="geometry" />
        </mxCell>
        <mxCell id="fUbf4jdWngs2MHz5qSle-5" style="edgeStyle=orthogonalEdgeStyle;rounded=0;orthogonalLoop=1;jettySize=auto;html=1;exitX=0;exitY=0.5;exitDx=0;exitDy=0;" edge="1" parent="1" source="fUbf4jdWngs2MHz5qSle-3" target="fUbf4jdWngs2MHz5qSle-1">
          <mxGeometry relative="1" as="geometry" />
        </mxCell>
        <mxCell id="fUbf4jdWngs2MHz5qSle-7" value="push image" style="edgeLabel;html=1;align=center;verticalAlign=middle;resizable=0;points=[];" vertex="1" connectable="0" parent="fUbf4jdWngs2MHz5qSle-5">
          <mxGeometry x="-0.1286" y="2" relative="1" as="geometry">
            <mxPoint as="offset" />
          </mxGeometry>
        </mxCell>
        <mxCell id="fUbf4jdWngs2MHz5qSle-3" value="Github Actions" style="rounded=0;whiteSpace=wrap;html=1;" vertex="1" parent="1">
          <mxGeometry x="790" y="60" width="120" height="60" as="geometry" />
        </mxCell>
        <mxCell id="fUbf4jdWngs2MHz5qSle-6" value="EKS Auto" style="rounded=0;whiteSpace=wrap;html=1;align=left;verticalAlign=top;" vertex="1" parent="1">
          <mxGeometry x="260" y="250" width="610" height="380" as="geometry" />
        </mxCell>
        <mxCell id="fUbf4jdWngs2MHz5qSle-25" style="edgeStyle=orthogonalEdgeStyle;rounded=0;orthogonalLoop=1;jettySize=auto;html=1;exitX=0.5;exitY=0;exitDx=0;exitDy=0;entryX=0.5;entryY=1;entryDx=0;entryDy=0;" edge="1" parent="1" source="fUbf4jdWngs2MHz5qSle-8" target="fUbf4jdWngs2MHz5qSle-18">
          <mxGeometry relative="1" as="geometry">
            <Array as="points">
              <mxPoint x="380" y="230" />
              <mxPoint x="380" y="230" />
            </Array>
          </mxGeometry>
        </mxCell>
        <mxCell id="fUbf4jdWngs2MHz5qSle-8" value="public subnet us-west-1a" style="rounded=0;whiteSpace=wrap;html=1;align=left;verticalAlign=top;" vertex="1" parent="1">
          <mxGeometry x="300" y="290" width="160" height="320" as="geometry" />
        </mxCell>
        <mxCell id="fUbf4jdWngs2MHz5qSle-26" style="edgeStyle=orthogonalEdgeStyle;rounded=0;orthogonalLoop=1;jettySize=auto;html=1;exitX=0.5;exitY=0;exitDx=0;exitDy=0;entryX=0.5;entryY=1;entryDx=0;entryDy=0;" edge="1" parent="1" source="fUbf4jdWngs2MHz5qSle-10" target="fUbf4jdWngs2MHz5qSle-18">
          <mxGeometry relative="1" as="geometry">
            <Array as="points">
              <mxPoint x="550" y="270" />
              <mxPoint x="380" y="270" />
            </Array>
          </mxGeometry>
        </mxCell>
        <mxCell id="fUbf4jdWngs2MHz5qSle-10" value="public subnet us-west-1b" style="rounded=0;whiteSpace=wrap;html=1;align=left;verticalAlign=top;" vertex="1" parent="1">
          <mxGeometry x="470" y="290" width="160" height="320" as="geometry" />
        </mxCell>
        <mxCell id="fUbf4jdWngs2MHz5qSle-27" style="edgeStyle=orthogonalEdgeStyle;rounded=0;orthogonalLoop=1;jettySize=auto;html=1;exitX=0.5;exitY=0;exitDx=0;exitDy=0;entryX=0.5;entryY=1;entryDx=0;entryDy=0;" edge="1" parent="1" source="fUbf4jdWngs2MHz5qSle-11" target="fUbf4jdWngs2MHz5qSle-18">
          <mxGeometry relative="1" as="geometry">
            <Array as="points">
              <mxPoint x="720" y="270" />
              <mxPoint x="380" y="270" />
            </Array>
          </mxGeometry>
        </mxCell>
        <mxCell id="fUbf4jdWngs2MHz5qSle-11" value="private subnet" style="rounded=0;whiteSpace=wrap;html=1;align=left;verticalAlign=top;" vertex="1" parent="1">
          <mxGeometry x="640" y="290" width="160" height="320" as="geometry" />
        </mxCell>
        <mxCell id="fUbf4jdWngs2MHz5qSle-12" value="......" style="text;html=1;align=center;verticalAlign=middle;whiteSpace=wrap;rounded=0;" vertex="1" parent="1">
          <mxGeometry x="800" y="440" width="60" height="30" as="geometry" />
        </mxCell>
        <mxCell id="fUbf4jdWngs2MHz5qSle-13" value="EKS Auto built-in node pools" style="rounded=0;whiteSpace=wrap;html=1;verticalAlign=top;" vertex="1" parent="1">
          <mxGeometry x="320" y="350" width="120" height="180" as="geometry" />
        </mxCell>
        <mxCell id="fUbf4jdWngs2MHz5qSle-14" value="EKS Auto built-in node pools" style="rounded=0;whiteSpace=wrap;html=1;verticalAlign=top;" vertex="1" parent="1">
          <mxGeometry x="490" y="350" width="120" height="180" as="geometry" />
        </mxCell>
        <mxCell id="fUbf4jdWngs2MHz5qSle-15" value="Custom node group" style="rounded=0;whiteSpace=wrap;html=1;verticalAlign=top;" vertex="1" parent="1">
          <mxGeometry x="320" y="540" width="120" height="60" as="geometry" />
        </mxCell>
        <mxCell id="fUbf4jdWngs2MHz5qSle-16" value="Custom node group" style="rounded=0;whiteSpace=wrap;html=1;verticalAlign=top;" vertex="1" parent="1">
          <mxGeometry x="490" y="540" width="120" height="60" as="geometry" />
        </mxCell>
        <mxCell id="fUbf4jdWngs2MHz5qSle-17" value="Custom node group" style="rounded=0;whiteSpace=wrap;html=1;verticalAlign=top;" vertex="1" parent="1">
          <mxGeometry x="660" y="350" width="120" height="60" as="geometry" />
        </mxCell>
        <mxCell id="fUbf4jdWngs2MHz5qSle-18" value="Internet Gateway" style="rounded=1;whiteSpace=wrap;html=1;" vertex="1" parent="1">
          <mxGeometry x="320" y="170" width="120" height="60" as="geometry" />
        </mxCell>
        <mxCell id="fUbf4jdWngs2MHz5qSle-19" value="system pool" style="rounded=0;whiteSpace=wrap;html=1;" vertex="1" parent="1">
          <mxGeometry x="330" y="395" width="100" height="55" as="geometry" />
        </mxCell>
        <mxCell id="fUbf4jdWngs2MHz5qSle-20" value="general purpose pool" style="rounded=0;whiteSpace=wrap;html=1;" vertex="1" parent="1">
          <mxGeometry x="330" y="460" width="100" height="55" as="geometry" />
        </mxCell>
        <mxCell id="fUbf4jdWngs2MHz5qSle-21" value="system pool" style="rounded=0;whiteSpace=wrap;html=1;" vertex="1" parent="1">
          <mxGeometry x="500" y="395" width="100" height="55" as="geometry" />
        </mxCell>
        <mxCell id="fUbf4jdWngs2MHz5qSle-22" value="general purpose pool" style="rounded=0;whiteSpace=wrap;html=1;" vertex="1" parent="1">
          <mxGeometry x="500" y="460" width="100" height="55" as="geometry" />
        </mxCell>
      </root>
    </mxGraphModel>
  </diagram>
</mxfile>
